<svg xmlns="http://www.w3.org/2000/svg" viewBox="0 0 900 600"><rect width="900" height="600" fill="#f8fafc"/><text x="40" y="50" font-family="Arial" font-size="30" font-weight="700">Respiratory Auscultation — Compare Side-to-Side</text><path d="M450 110 C390 130 330 190 325 300 L345 500 L555 500 L575 300 C570 190 510 130 450 110Z" fill="#e2e8f0" stroke="#334155" stroke-width="4"/><path d="M430 145 Q385 210 380 300 M470 145 Q515 210 520 300" fill="none" stroke="#64748b" stroke-width="4"/><g fill="#dbeafe" stroke="#2563eb" stroke-width="3"><circle cx="390" cy="190" r="15"/><circle cx="510" cy="190" r="15"/><circle cx="375" cy="250" r="15"/><circle cx="525" cy="250" r="15"/><circle cx="365" cy="315" r="15"/><circle cx="535" cy="315" r="15"/><circle cx="365" cy="380" r="15"/><circle cx="535" cy="380" r="15"/><circle cx="375" cy="445" r="15"/><circle cx="525" cy="445" r="15"/></g><text x="70" y="545" font-family="Arial" font-size="20">Use diaphragm • deep breaths when appropriate • compare corresponding areas</text></svg>